{
  "header": {
    "keySignatures": [
      { "key": "Bb", "scale": "major", "ticks": 0 },
      { "key": "Bb", "scale": "major", "ticks": 26880 },
      { "key": "Bb", "scale": "major", "ticks": 0 },
      { "key": "Bb", "scale": "major", "ticks": 26880 }
    ],
    "meta": [],
    "name": "Piano\u0000",
    "ppq": 480,
    "tempos": [
      { "bpm": 120, "ticks": 0 },
      { "bpm": 120, "ticks": 26880 }
    ],
    "timeSignatures": [
      { "ticks": 0, "timeSignature": [4, 4], "measures": 0 },
      { "ticks": 26880, "timeSignature": [4, 4], "measures": 14 }
    ]
  },
  "tracks": [
    {
      "channel": 0,
      "controlChanges": {
        "7": [
          { "number": 7, "ticks": 0, "time": 0, "value": 0.7874015748031497 }
        ],
        "10": [
          { "number": 10, "ticks": 0, "time": 0, "value": 0.5039370078740157 }
        ],
        "91": [{ "number": 91, "ticks": 0, "time": 0, "value": 0 }],
        "93": [{ "number": 93, "ticks": 0, "time": 0, "value": 0 }],
        "121": [{ "number": 121, "ticks": 0, "time": 0, "value": 0 }]
      },
      "pitchBends": [],
      "instrument": {
        "family": "piano",
        "number": 0,
        "name": "acoustic grand piano"
      },
      "name": "Piano\u0000",
      "notes": [
        {
          "duration": 0.23645833333333344,
          "durationTicks": 227,
          "midi": 62,
          "name": "D4",
          "ticks": 1200,
          "time": 1.25,
          "velocity": 0.6299212598425197
        },
        {
          "duration": 0.23645833333333344,
          "durationTicks": 227,
          "midi": 67,
          "name": "G4",
          "ticks": 1440,
          "time": 1.5,
          "velocity": 0.6299212598425197
        },
        {
          "duration": 0.23645833333333344,
          "durationTicks": 227,
          "midi": 70,
          "name": "A#4",
          "ticks": 1680,
          "time": 1.75,
          "velocity": 0.6299212598425197
        },
        {
          "duration": 0.23645833333333321,
          "durationTicks": 227,
          "midi": 74,
          "name": "D5",
          "ticks": 1920,
          "time": 2,
          "velocity": 0.6299212598425197
        },
        {
          "duration": 0.06354166666666661,
          "durationTicks": 61,
          "midi": 74,
          "name": "D5",
          "ticks": 2640,
          "time": 2.75,
          "velocity": 0.6299212598425197
        },
        {
          "duration": 0.06354166666666661,
          "durationTicks": 61,
          "midi": 75,
          "name": "D#5",
          "ticks": 2702,
          "time": 2.814583333333333,
          "velocity": 0.6299212598425197
        },
        {
          "duration": 0.34999999999999964,
          "durationTicks": 336,
          "midi": 74,
          "name": "D5",
          "ticks": 2764,
          "time": 2.879166666666667,
          "velocity": 0.6299212598425197
        },
        {
          "duration": 0.23645833333333321,
          "durationTicks": 227,
          "midi": 62,
          "name": "D4",
          "ticks": 3120,
          "time": 3.25,
          "velocity": 0.6299212598425197
        },
        {
          "duration": 0.23645833333333321,
          "durationTicks": 227,
          "midi": 66,
          "name": "F#4",
          "ticks": 3360,
          "time": 3.5,
          "velocity": 0.6299212598425197
        },
        {
          "duration": 0.23645833333333321,
          "durationTicks": 227,
          "midi": 69,
          "name": "A4",
          "ticks": 3600,
          "time": 3.75,
          "velocity": 0.6299212598425197
        },
        {
          "duration": 0.23645833333333321,
          "durationTicks": 227,
          "midi": 72,
          "name": "C5",
          "ticks": 3840,
          "time": 4,
          "velocity": 0.6299212598425197
        },
        {
          "duration": 0.06354166666666661,
          "durationTicks": 61,
          "midi": 72,
          "name": "C5",
          "ticks": 4560,
          "time": 4.75,
          "velocity": 0.6299212598425197
        },
        {
          "duration": 0.06354166666666661,
          "durationTicks": 61,
          "midi": 74,
          "name": "D5",
          "ticks": 4622,
          "time": 4.814583333333333,
          "velocity": 0.6299212598425197
        },
        {
          "duration": 0.35000000000000053,
          "durationTicks": 336,
          "midi": 72,
          "name": "C5",
          "ticks": 4684,
          "time": 4.879166666666666,
          "velocity": 0.6299212598425197
        },
        {
          "duration": 0.23645833333333321,
          "durationTicks": 227,
          "midi": 62,
          "name": "D4",
          "ticks": 5040,
          "time": 5.25,
          "velocity": 0.6299212598425197
        },
        {
          "duration": 0.23645833333333321,
          "durationTicks": 227,
          "midi": 61,
          "name": "C#4",
          "ticks": 5280,
          "time": 5.5,
          "velocity": 0.6299212598425197
        },
        {
          "duration": 0.23645833333333321,
          "durationTicks": 227,
          "midi": 62,
          "name": "D4",
          "ticks": 5520,
          "time": 5.75,
          "velocity": 0.6299212598425197
        },
        {
          "duration": 0.23645833333333321,
          "durationTicks": 227,
          "midi": 70,
          "name": "A#4",
          "ticks": 5760,
          "time": 6,
          "velocity": 0.6299212598425197
        },
        {
          "duration": 0.06354166666666661,
          "durationTicks": 61,
          "midi": 70,
          "name": "A#4",
          "ticks": 6480,
          "time": 6.75,
          "velocity": 0.6299212598425197
        },
        {
          "duration": 0.06354166666666661,
          "durationTicks": 61,
          "midi": 72,
          "name": "C5",
          "ticks": 6542,
          "time": 6.814583333333333,
          "velocity": 0.6299212598425197
        },
        {
          "duration": 0.35000000000000053,
          "durationTicks": 336,
          "midi": 70,
          "name": "A#4",
          "ticks": 6604,
          "time": 6.879166666666666,
          "velocity": 0.6299212598425197
        },
        {
          "duration": 0.2489583333333334,
          "durationTicks": 239,
          "midi": 69,
          "name": "A4",
          "ticks": 6960,
          "time": 7.25,
          "velocity": 0.6299212598425197
        },
        {
          "duration": 0.2489583333333334,
          "durationTicks": 239,
          "midi": 70,
          "name": "A#4",
          "ticks": 7200,
          "time": 7.5,
          "velocity": 0.6299212598425197
        },
        {
          "duration": 0.2489583333333334,
          "durationTicks": 239,
          "midi": 72,
          "name": "C5",
          "ticks": 7440,
          "time": 7.75,
          "velocity": 0.6299212598425197
        },
        {
          "duration": 0.2489583333333325,
          "durationTicks": 239,
          "midi": 75,
          "name": "D#5",
          "ticks": 7680,
          "time": 8,
          "velocity": 0.6299212598425197
        },
        {
          "duration": 0.2489583333333325,
          "durationTicks": 239,
          "midi": 75,
          "name": "D#5",
          "ticks": 7920,
          "time": 8.25,
          "velocity": 0.6299212598425197
        },
        {
          "duration": 0.2489583333333325,
          "durationTicks": 239,
          "midi": 77,
          "name": "F5",
          "ticks": 8160,
          "time": 8.5,
          "velocity": 0.6299212598425197
        },
        {
          "duration": 0.2489583333333325,
          "durationTicks": 239,
          "midi": 75,
          "name": "D#5",
          "ticks": 8400,
          "time": 8.75,
          "velocity": 0.6299212598425197
        },
        {
          "duration": 0.23645833333333321,
          "durationTicks": 227,
          "midi": 74,
          "name": "D5",
          "ticks": 8640,
          "time": 9,
          "velocity": 0.6299212598425197
        },
        {
          "duration": 0.0625,
          "durationTicks": 60,
          "midi": 74,
          "name": "D5",
          "ticks": 8880,
          "time": 9.25,
          "velocity": 0.6299212598425197
        },
        {
          "duration": 0.0625,
          "durationTicks": 60,
          "midi": 75,
          "name": "D#5",
          "ticks": 8941,
          "time": 9.313541666666667,
          "velocity": 0.6299212598425197
        },
        {
          "duration": 0.5875000000000004,
          "durationTicks": 564,
          "midi": 74,
          "name": "D5",
          "ticks": 9004,
          "time": 9.379166666666666,
          "velocity": 0.6299212598425197
        },
        {
          "duration": 0.4739583333333339,
          "durationTicks": 455,
          "midi": 74,
          "name": "D5",
          "ticks": 11040,
          "time": 11.5,
          "velocity": 0.6299212598425197
        },
        {
          "duration": 0.7114583333333329,
          "durationTicks": 683,
          "midi": 74,
          "name": "D5",
          "ticks": 11520,
          "time": 12,
          "velocity": 0.6299212598425197
        },
        {
          "duration": 0.7114583333333329,
          "durationTicks": 683,
          "midi": 79,
          "name": "G5",
          "ticks": 11520,
          "time": 12,
          "velocity": 0.6299212598425197
        },
        {
          "duration": 0.7114583333333329,
          "durationTicks": 683,
          "midi": 82,
          "name": "A#5",
          "ticks": 11520,
          "time": 12,
          "velocity": 0.6299212598425197
        },
        {
          "duration": 0.23645833333333321,
          "durationTicks": 227,
          "midi": 84,
          "name": "C6",
          "ticks": 12240,
          "time": 12.75,
          "velocity": 0.6299212598425197
        },
        {
          "duration": 0.4739583333333339,
          "durationTicks": 455,
          "midi": 72,
          "name": "C5",
          "ticks": 12480,
          "time": 13,
          "velocity": 0.6299212598425197
        },
        {
          "duration": 0.4739583333333339,
          "durationTicks": 455,
          "midi": 75,
          "name": "D#5",
          "ticks": 12480,
          "time": 13,
          "velocity": 0.6299212598425197
        },
        {
          "duration": 0.4739583333333339,
          "durationTicks": 455,
          "midi": 74,
          "name": "D5",
          "ticks": 12960,
          "time": 13.5,
          "velocity": 0.6299212598425197
        },
        {
          "duration": 0.7114583333333329,
          "durationTicks": 683,
          "midi": 74,
          "name": "D5",
          "ticks": 13440,
          "time": 14,
          "velocity": 0.6299212598425197
        },
        {
          "duration": 0.7114583333333329,
          "durationTicks": 683,
          "midi": 78,
          "name": "F#5",
          "ticks": 13440,
          "time": 14,
          "velocity": 0.6299212598425197
        },
        {
          "duration": 0.7114583333333329,
          "durationTicks": 683,
          "midi": 81,
          "name": "A5",
          "ticks": 13440,
          "time": 14,
          "velocity": 0.6299212598425197
        },
        {
          "duration": 0.23645833333333321,
          "durationTicks": 227,
          "midi": 84,
          "name": "C6",
          "ticks": 14160,
          "time": 14.75,
          "velocity": 0.6299212598425197
        },
        {
          "duration": 0.4739583333333339,
          "durationTicks": 455,
          "midi": 67,
          "name": "G4",
          "ticks": 14400,
          "time": 15,
          "velocity": 0.6299212598425197
        },
        {
          "duration": 0.4739583333333339,
          "durationTicks": 455,
          "midi": 79,
          "name": "G5",
          "ticks": 14400,
          "time": 15,
          "velocity": 0.6299212598425197
        },
        {
          "duration": 0.4739583333333339,
          "durationTicks": 455,
          "midi": 67,
          "name": "G4",
          "ticks": 14880,
          "time": 15.5,
          "velocity": 0.6299212598425197
        },
        {
          "duration": 0.4739583333333339,
          "durationTicks": 455,
          "midi": 79,
          "name": "G5",
          "ticks": 14880,
          "time": 15.5,
          "velocity": 0.6299212598425197
        },
        {
          "duration": 0.47395833333333215,
          "durationTicks": 455,
          "midi": 82,
          "name": "A#5",
          "ticks": 15360,
          "time": 16,
          "velocity": 0.6299212598425197
        },
        {
          "duration": 0.236458333333335,
          "durationTicks": 227,
          "midi": 79,
          "name": "G5",
          "ticks": 15840,
          "time": 16.5,
          "velocity": 0.6299212598425197
        },
        {
          "duration": 0.236458333333335,
          "durationTicks": 227,
          "midi": 79,
          "name": "G5",
          "ticks": 16080,
          "time": 16.75,
          "velocity": 0.6299212598425197
        },
        {
          "duration": 0.47395833333333215,
          "durationTicks": 455,
          "midi": 78,
          "name": "F#5",
          "ticks": 16320,
          "time": 17,
          "velocity": 0.6299212598425197
        },
        {
          "duration": 0.47395833333333215,
          "durationTicks": 455,
          "midi": 69,
          "name": "A4",
          "ticks": 16800,
          "time": 17.5,
          "velocity": 0.6299212598425197
        },
        {
          "duration": 0.47395833333333215,
          "durationTicks": 455,
          "midi": 81,
          "name": "A5",
          "ticks": 16800,
          "time": 17.5,
          "velocity": 0.6299212598425197
        },
        {
          "duration": 0.47395833333333215,
          "durationTicks": 455,
          "midi": 84,
          "name": "C6",
          "ticks": 17280,
          "time": 18,
          "velocity": 0.6299212598425197
        },
        {
          "duration": 0.236458333333335,
          "durationTicks": 227,
          "midi": 81,
          "name": "A5",
          "ticks": 17760,
          "time": 18.5,
          "velocity": 0.6299212598425197
        },
        {
          "duration": 0.236458333333335,
          "durationTicks": 227,
          "midi": 81,
          "name": "A5",
          "ticks": 18000,
          "time": 18.75,
          "velocity": 0.6299212598425197
        },
        {
          "duration": 0.47395833333333215,
          "durationTicks": 455,
          "midi": 79,
          "name": "G5",
          "ticks": 18240,
          "time": 19,
          "velocity": 0.6299212598425197
        },
        {
          "duration": 0.7114583333333329,
          "durationTicks": 683,
          "midi": 74,
          "name": "D5",
          "ticks": 19200,
          "time": 20,
          "velocity": 0.6299212598425197
        },
        {
          "duration": 0.7114583333333329,
          "durationTicks": 683,
          "midi": 82,
          "name": "A#5",
          "ticks": 19200,
          "time": 20,
          "velocity": 0.6299212598425197
        },
        {
          "duration": 0.7114583333333329,
          "durationTicks": 683,
          "midi": 86,
          "name": "D6",
          "ticks": 19200,
          "time": 20,
          "velocity": 0.6299212598425197
        },
        {
          "duration": 0.236458333333335,
          "durationTicks": 227,
          "midi": 79,
          "name": "G5",
          "ticks": 19920,
          "time": 20.75,
          "velocity": 0.6299212598425197
        },
        {
          "duration": 0.9489583333333336,
          "durationTicks": 911,
          "midi": 79,
          "name": "G5",
          "ticks": 20160,
          "time": 21,
          "velocity": 0.6299212598425197
        },
        {
          "duration": 0.7114583333333329,
          "durationTicks": 683,
          "midi": 72,
          "name": "C5",
          "ticks": 21120,
          "time": 22,
          "velocity": 0.6299212598425197
        },
        {
          "duration": 0.7114583333333329,
          "durationTicks": 683,
          "midi": 81,
          "name": "A5",
          "ticks": 21120,
          "time": 22,
          "velocity": 0.6299212598425197
        },
        {
          "duration": 0.7114583333333329,
          "durationTicks": 683,
          "midi": 84,
          "name": "C6",
          "ticks": 21120,
          "time": 22,
          "velocity": 0.6299212598425197
        },
        {
          "duration": 0.236458333333335,
          "durationTicks": 227,
          "midi": 78,
          "name": "F#5",
          "ticks": 21840,
          "time": 22.75,
          "velocity": 0.6299212598425197
        },
        {
          "duration": 0.9489583333333336,
          "durationTicks": 911,
          "midi": 78,
          "name": "F#5",
          "ticks": 22080,
          "time": 23,
          "velocity": 0.6299212598425197
        },
        {
          "duration": 0.7489583333333343,
          "durationTicks": 719,
          "midi": 74,
          "name": "D5",
          "ticks": 23040,
          "time": 24,
          "velocity": 0.6299212598425197
        },
        {
          "duration": 0.6822916666666643,
          "durationTicks": 655,
          "midi": 78,
          "name": "F#5",
          "ticks": 23103,
          "time": 24.065625,
          "velocity": 0.6299212598425197
        },
        {
          "duration": 0.6156249999999979,
          "durationTicks": 591,
          "midi": 81,
          "name": "A5",
          "ticks": 23167,
          "time": 24.132291666666667,
          "velocity": 0.6299212598425197
        },
        {
          "duration": 0.5489583333333314,
          "durationTicks": 527,
          "midi": 86,
          "name": "D6",
          "ticks": 23231,
          "time": 24.198958333333334,
          "velocity": 0.6299212598425197
        },
        {
          "duration": 0.47395833333333215,
          "durationTicks": 455,
          "midi": 81,
          "name": "A5",
          "ticks": 23760,
          "time": 24.75,
          "velocity": 0.6299212598425197
        },
        {
          "duration": 0.7114583333333329,
          "durationTicks": 683,
          "midi": 78,
          "name": "F#5",
          "ticks": 24240,
          "time": 25.25,
          "velocity": 0.6299212598425197
        },
        {
          "duration": 1.9989583333333343,
          "durationTicks": 1919,
          "midi": 67,
          "name": "G4",
          "ticks": 24960,
          "time": 26,
          "velocity": 0.6299212598425197
        },
        {
          "duration": 1.9322916666666643,
          "durationTicks": 1855,
          "midi": 70,
          "name": "A#4",
          "ticks": 25023,
          "time": 26.065625,
          "velocity": 0.6299212598425197
        },
        {
          "duration": 1.8666666666666636,
          "durationTicks": 1792,
          "midi": 74,
          "name": "D5",
          "ticks": 25086,
          "time": 26.13125,
          "velocity": 0.6299212598425197
        },
        {
          "duration": 1.798958333333335,
          "durationTicks": 1727,
          "midi": 79,
          "name": "G5",
          "ticks": 25152,
          "time": 26.2,
          "velocity": 0.6299212598425197
        },
        {
          "duration": 0.236458333333335,
          "durationTicks": 227,
          "midi": 62,
          "name": "D4",
          "ticks": 28080,
          "time": 29.25,
          "velocity": 0.6299212598425197
        },
        {
          "duration": 0.236458333333335,
          "durationTicks": 227,
          "midi": 67,
          "name": "G4",
          "ticks": 28320,
          "time": 29.5,
          "velocity": 0.6299212598425197
        },
        {
          "duration": 0.236458333333335,
          "durationTicks": 227,
          "midi": 70,
          "name": "A#4",
          "ticks": 28560,
          "time": 29.75,
          "velocity": 0.6299212598425197
        },
        {
          "duration": 0.23645833333333144,
          "durationTicks": 227,
          "midi": 74,
          "name": "D5",
          "ticks": 28800,
          "time": 30,
          "velocity": 0.6299212598425197
        },
        {
          "duration": 0.06354166666666572,
          "durationTicks": 61,
          "midi": 74,
          "name": "D5",
          "ticks": 29520,
          "time": 30.75,
          "velocity": 0.6299212598425197
        },
        {
          "duration": 0.06354166666666927,
          "durationTicks": 61,
          "midi": 75,
          "name": "D#5",
          "ticks": 29582,
          "time": 30.81458333333333,
          "velocity": 0.6299212598425197
        },
        {
          "duration": 0.3500000000000014,
          "durationTicks": 336,
          "midi": 74,
          "name": "D5",
          "ticks": 29644,
          "time": 30.879166666666666,
          "velocity": 0.6299212598425197
        },
        {
          "duration": 0.23645833333333144,
          "durationTicks": 227,
          "midi": 62,
          "name": "D4",
          "ticks": 30000,
          "time": 31.25,
          "velocity": 0.6299212598425197
        },
        {
          "duration": 0.23645833333333144,
          "durationTicks": 227,
          "midi": 66,
          "name": "F#4",
          "ticks": 30240,
          "time": 31.5,
          "velocity": 0.6299212598425197
        },
        {
          "duration": 0.23645833333333144,
          "durationTicks": 227,
          "midi": 69,
          "name": "A4",
          "ticks": 30480,
          "time": 31.75,
          "velocity": 0.6299212598425197
        },
        {
          "duration": 0.23645833333333144,
          "durationTicks": 227,
          "midi": 72,
          "name": "C5",
          "ticks": 30720,
          "time": 32,
          "velocity": 0.6299212598425197
        },
        {
          "duration": 0.06354166666666572,
          "durationTicks": 61,
          "midi": 72,
          "name": "C5",
          "ticks": 31440,
          "time": 32.75,
          "velocity": 0.6299212598425197
        },
        {
          "duration": 0.06354166666666572,
          "durationTicks": 61,
          "midi": 74,
          "name": "D5",
          "ticks": 31502,
          "time": 32.81458333333333,
          "velocity": 0.6299212598425197
        },
        {
          "duration": 0.3500000000000014,
          "durationTicks": 336,
          "midi": 72,
          "name": "C5",
          "ticks": 31564,
          "time": 32.87916666666666,
          "velocity": 0.6299212598425197
        },
        {
          "duration": 0.23645833333333144,
          "durationTicks": 227,
          "midi": 62,
          "name": "D4",
          "ticks": 31920,
          "time": 33.25,
          "velocity": 0.6299212598425197
        },
        {
          "duration": 0.23645833333333144,
          "durationTicks": 227,
          "midi": 61,
          "name": "C#4",
          "ticks": 32160,
          "time": 33.5,
          "velocity": 0.6299212598425197
        },
        {
          "duration": 0.23645833333333144,
          "durationTicks": 227,
          "midi": 62,
          "name": "D4",
          "ticks": 32400,
          "time": 33.75,
          "velocity": 0.6299212598425197
        },
        {
          "duration": 0.23645833333333144,
          "durationTicks": 227,
          "midi": 70,
          "name": "A#4",
          "ticks": 32640,
          "time": 34,
          "velocity": 0.6299212598425197
        },
        {
          "duration": 0.06354166666666572,
          "durationTicks": 61,
          "midi": 70,
          "name": "A#4",
          "ticks": 33360,
          "time": 34.75,
          "velocity": 0.6299212598425197
        },
        {
          "duration": 0.06354166666666572,
          "durationTicks": 61,
          "midi": 72,
          "name": "C5",
          "ticks": 33422,
          "time": 34.81458333333333,
          "velocity": 0.6299212598425197
        },
        {
          "duration": 0.3500000000000014,
          "durationTicks": 336,
          "midi": 70,
          "name": "A#4",
          "ticks": 33484,
          "time": 34.87916666666666,
          "velocity": 0.6299212598425197
        },
        {
          "duration": 0.24895833333333428,
          "durationTicks": 239,
          "midi": 69,
          "name": "A4",
          "ticks": 33840,
          "time": 35.25,
          "velocity": 0.6299212598425197
        },
        {
          "duration": 0.24895833333333428,
          "durationTicks": 239,
          "midi": 70,
          "name": "A#4",
          "ticks": 34080,
          "time": 35.5,
          "velocity": 0.6299212598425197
        },
        {
          "duration": 0.24895833333333428,
          "durationTicks": 239,
          "midi": 72,
          "name": "C5",
          "ticks": 34320,
          "time": 35.75,
          "velocity": 0.6299212598425197
        },
        {
          "duration": 0.24895833333333428,
          "durationTicks": 239,
          "midi": 75,
          "name": "D#5",
          "ticks": 34560,
          "time": 36,
          "velocity": 0.6299212598425197
        },
        {
          "duration": 0.24895833333333428,
          "durationTicks": 239,
          "midi": 75,
          "name": "D#5",
          "ticks": 34800,
          "time": 36.25,
          "velocity": 0.6299212598425197
        },
        {
          "duration": 0.24895833333333428,
          "durationTicks": 239,
          "midi": 77,
          "name": "F5",
          "ticks": 35040,
          "time": 36.5,
          "velocity": 0.6299212598425197
        },
        {
          "duration": 0.24895833333333428,
          "durationTicks": 239,
          "midi": 75,
          "name": "D#5",
          "ticks": 35280,
          "time": 36.75,
          "velocity": 0.6299212598425197
        },
        {
          "duration": 0.23645833333333144,
          "durationTicks": 227,
          "midi": 74,
          "name": "D5",
          "ticks": 35520,
          "time": 37,
          "velocity": 0.6299212598425197
        },
        {
          "duration": 0.0625,
          "durationTicks": 60,
          "midi": 74,
          "name": "D5",
          "ticks": 35760,
          "time": 37.25,
          "velocity": 0.6299212598425197
        },
        {
          "duration": 0.0625,
          "durationTicks": 60,
          "midi": 75,
          "name": "D#5",
          "ticks": 35821,
          "time": 37.313541666666666,
          "velocity": 0.6299212598425197
        },
        {
          "duration": 0.5875000000000057,
          "durationTicks": 564,
          "midi": 74,
          "name": "D5",
          "ticks": 35884,
          "time": 37.37916666666666,
          "velocity": 0.6299212598425197
        },
        {
          "duration": 0.4739583333333357,
          "durationTicks": 455,
          "midi": 74,
          "name": "D5",
          "ticks": 37920,
          "time": 39.5,
          "velocity": 0.6299212598425197
        },
        {
          "duration": 0.7114583333333329,
          "durationTicks": 683,
          "midi": 74,
          "name": "D5",
          "ticks": 38400,
          "time": 40,
          "velocity": 0.6299212598425197
        },
        {
          "duration": 0.7114583333333329,
          "durationTicks": 683,
          "midi": 79,
          "name": "G5",
          "ticks": 38400,
          "time": 40,
          "velocity": 0.6299212598425197
        },
        {
          "duration": 0.7114583333333329,
          "durationTicks": 683,
          "midi": 82,
          "name": "A#5",
          "ticks": 38400,
          "time": 40,
          "velocity": 0.6299212598425197
        },
        {
          "duration": 0.23645833333333144,
          "durationTicks": 227,
          "midi": 84,
          "name": "C6",
          "ticks": 39120,
          "time": 40.75,
          "velocity": 0.6299212598425197
        },
        {
          "duration": 0.4739583333333357,
          "durationTicks": 455,
          "midi": 72,
          "name": "C5",
          "ticks": 39360,
          "time": 41,
          "velocity": 0.6299212598425197
        },
        {
          "duration": 0.4739583333333357,
          "durationTicks": 455,
          "midi": 75,
          "name": "D#5",
          "ticks": 39360,
          "time": 41,
          "velocity": 0.6299212598425197
        },
        {
          "duration": 0.4739583333333357,
          "durationTicks": 455,
          "midi": 74,
          "name": "D5",
          "ticks": 39840,
          "time": 41.5,
          "velocity": 0.6299212598425197
        },
        {
          "duration": 0.7114583333333329,
          "durationTicks": 683,
          "midi": 74,
          "name": "D5",
          "ticks": 40320,
          "time": 42,
          "velocity": 0.6299212598425197
        },
        {
          "duration": 0.7114583333333329,
          "durationTicks": 683,
          "midi": 78,
          "name": "F#5",
          "ticks": 40320,
          "time": 42,
          "velocity": 0.6299212598425197
        },
        {
          "duration": 0.7114583333333329,
          "durationTicks": 683,
          "midi": 81,
          "name": "A5",
          "ticks": 40320,
          "time": 42,
          "velocity": 0.6299212598425197
        },
        {
          "duration": 0.23645833333333144,
          "durationTicks": 227,
          "midi": 84,
          "name": "C6",
          "ticks": 41040,
          "time": 42.75,
          "velocity": 0.6299212598425197
        },
        {
          "duration": 0.4739583333333357,
          "durationTicks": 455,
          "midi": 67,
          "name": "G4",
          "ticks": 41280,
          "time": 43,
          "velocity": 0.6299212598425197
        },
        {
          "duration": 0.4739583333333357,
          "durationTicks": 455,
          "midi": 79,
          "name": "G5",
          "ticks": 41280,
          "time": 43,
          "velocity": 0.6299212598425197
        },
        {
          "duration": 0.4739583333333357,
          "durationTicks": 455,
          "midi": 67,
          "name": "G4",
          "ticks": 41760,
          "time": 43.5,
          "velocity": 0.6299212598425197
        },
        {
          "duration": 0.4739583333333357,
          "durationTicks": 455,
          "midi": 79,
          "name": "G5",
          "ticks": 41760,
          "time": 43.5,
          "velocity": 0.6299212598425197
        },
        {
          "duration": 0.4739583333333286,
          "durationTicks": 455,
          "midi": 82,
          "name": "A#5",
          "ticks": 42240,
          "time": 44,
          "velocity": 0.6299212598425197
        },
        {
          "duration": 0.23645833333333144,
          "durationTicks": 227,
          "midi": 79,
          "name": "G5",
          "ticks": 42720,
          "time": 44.5,
          "velocity": 0.6299212598425197
        },
        {
          "duration": 0.23645833333333144,
          "durationTicks": 227,
          "midi": 79,
          "name": "G5",
          "ticks": 42960,
          "time": 44.75,
          "velocity": 0.6299212598425197
        },
        {
          "duration": 0.4739583333333286,
          "durationTicks": 455,
          "midi": 78,
          "name": "F#5",
          "ticks": 43200,
          "time": 45,
          "velocity": 0.6299212598425197
        },
        {
          "duration": 0.4739583333333286,
          "durationTicks": 455,
          "midi": 69,
          "name": "A4",
          "ticks": 43680,
          "time": 45.5,
          "velocity": 0.6299212598425197
        },
        {
          "duration": 0.4739583333333286,
          "durationTicks": 455,
          "midi": 81,
          "name": "A5",
          "ticks": 43680,
          "time": 45.5,
          "velocity": 0.6299212598425197
        },
        {
          "duration": 0.4739583333333286,
          "durationTicks": 455,
          "midi": 84,
          "name": "C6",
          "ticks": 44160,
          "time": 46,
          "velocity": 0.6299212598425197
        },
        {
          "duration": 0.23645833333333144,
          "durationTicks": 227,
          "midi": 81,
          "name": "A5",
          "ticks": 44640,
          "time": 46.5,
          "velocity": 0.6299212598425197
        },
        {
          "duration": 0.23645833333333144,
          "durationTicks": 227,
          "midi": 81,
          "name": "A5",
          "ticks": 44880,
          "time": 46.75,
          "velocity": 0.6299212598425197
        },
        {
          "duration": 0.4739583333333286,
          "durationTicks": 455,
          "midi": 79,
          "name": "G5",
          "ticks": 45120,
          "time": 47,
          "velocity": 0.6299212598425197
        },
        {
          "duration": 0.7114583333333329,
          "durationTicks": 683,
          "midi": 74,
          "name": "D5",
          "ticks": 46080,
          "time": 48,
          "velocity": 0.6299212598425197
        },
        {
          "duration": 0.7114583333333329,
          "durationTicks": 683,
          "midi": 82,
          "name": "A#5",
          "ticks": 46080,
          "time": 48,
          "velocity": 0.6299212598425197
        },
        {
          "duration": 0.7114583333333329,
          "durationTicks": 683,
          "midi": 86,
          "name": "D6",
          "ticks": 46080,
          "time": 48,
          "velocity": 0.6299212598425197
        },
        {
          "duration": 0.23645833333333144,
          "durationTicks": 227,
          "midi": 79,
          "name": "G5",
          "ticks": 46800,
          "time": 48.75,
          "velocity": 0.6299212598425197
        },
        {
          "duration": 0.9489583333333371,
          "durationTicks": 911,
          "midi": 79,
          "name": "G5",
          "ticks": 47040,
          "time": 49,
          "velocity": 0.6299212598425197
        },
        {
          "duration": 0.7114583333333329,
          "durationTicks": 683,
          "midi": 72,
          "name": "C5",
          "ticks": 48000,
          "time": 50,
          "velocity": 0.6299212598425197
        },
        {
          "duration": 0.7114583333333329,
          "durationTicks": 683,
          "midi": 81,
          "name": "A5",
          "ticks": 48000,
          "time": 50,
          "velocity": 0.6299212598425197
        },
        {
          "duration": 0.7114583333333329,
          "durationTicks": 683,
          "midi": 84,
          "name": "C6",
          "ticks": 48000,
          "time": 50,
          "velocity": 0.6299212598425197
        },
        {
          "duration": 0.23645833333333144,
          "durationTicks": 227,
          "midi": 78,
          "name": "F#5",
          "ticks": 48720,
          "time": 50.75,
          "velocity": 0.6299212598425197
        },
        {
          "duration": 0.9489583333333371,
          "durationTicks": 911,
          "midi": 78,
          "name": "F#5",
          "ticks": 48960,
          "time": 51,
          "velocity": 0.6299212598425197
        },
        {
          "duration": 0.7489583333333343,
          "durationTicks": 719,
          "midi": 74,
          "name": "D5",
          "ticks": 49920,
          "time": 52,
          "velocity": 0.6299212598425197
        },
        {
          "duration": 0.6822916666666714,
          "durationTicks": 655,
          "midi": 78,
          "name": "F#5",
          "ticks": 49983,
          "time": 52.065625,
          "velocity": 0.6299212598425197
        },
        {
          "duration": 0.6156250000000014,
          "durationTicks": 591,
          "midi": 81,
          "name": "A5",
          "ticks": 50047,
          "time": 52.13229166666667,
          "velocity": 0.6299212598425197
        },
        {
          "duration": 0.5489583333333314,
          "durationTicks": 527,
          "midi": 86,
          "name": "D6",
          "ticks": 50111,
          "time": 52.19895833333334,
          "velocity": 0.6299212598425197
        },
        {
          "duration": 0.4739583333333286,
          "durationTicks": 455,
          "midi": 81,
          "name": "A5",
          "ticks": 50640,
          "time": 52.75,
          "velocity": 0.6299212598425197
        },
        {
          "duration": 0.7114583333333329,
          "durationTicks": 683,
          "midi": 78,
          "name": "F#5",
          "ticks": 51120,
          "time": 53.25,
          "velocity": 0.6299212598425197
        },
        {
          "duration": 1.9989583333333343,
          "durationTicks": 1919,
          "midi": 67,
          "name": "G4",
          "ticks": 51840,
          "time": 54,
          "velocity": 0.6299212598425197
        },
        {
          "duration": 1.9322916666666714,
          "durationTicks": 1855,
          "midi": 70,
          "name": "A#4",
          "ticks": 51903,
          "time": 54.065625,
          "velocity": 0.6299212598425197
        },
        {
          "duration": 1.8666666666666671,
          "durationTicks": 1792,
          "midi": 74,
          "name": "D5",
          "ticks": 51966,
          "time": 54.13125,
          "velocity": 0.6299212598425197
        },
        {
          "duration": 1.7989583333333314,
          "durationTicks": 1727,
          "midi": 79,
          "name": "G5",
          "ticks": 52032,
          "time": 54.2,
          "velocity": 0.6299212598425197
        },
        {
          "duration": 0.4739583333333286,
          "durationTicks": 455,
          "midi": 74,
          "name": "D5",
          "ticks": 55200,
          "time": 57.5,
          "velocity": 0.6299212598425197
        },
        {
          "duration": 0.4739583333333286,
          "durationTicks": 455,
          "midi": 62,
          "name": "D4",
          "ticks": 55680,
          "time": 58,
          "velocity": 0.6299212598425197
        },
        {
          "duration": 0.4739583333333286,
          "durationTicks": 455,
          "midi": 67,
          "name": "G4",
          "ticks": 55680,
          "time": 58,
          "velocity": 0.6299212598425197
        },
        {
          "duration": 0.4739583333333286,
          "durationTicks": 455,
          "midi": 74,
          "name": "D5",
          "ticks": 55680,
          "time": 58,
          "velocity": 0.6299212598425197
        },
        {
          "duration": 0.23645833333333144,
          "durationTicks": 227,
          "midi": 67,
          "name": "G4",
          "ticks": 56160,
          "time": 58.5,
          "velocity": 0.6299212598425197
        },
        {
          "duration": 0.23645833333333144,
          "durationTicks": 227,
          "midi": 70,
          "name": "A#4",
          "ticks": 56400,
          "time": 58.75,
          "velocity": 0.6299212598425197
        },
        {
          "duration": 0.23645833333333144,
          "durationTicks": 227,
          "midi": 69,
          "name": "A4",
          "ticks": 56640,
          "time": 59,
          "velocity": 0.6299212598425197
        },
        {
          "duration": 0.23645833333333144,
          "durationTicks": 227,
          "midi": 69,
          "name": "A4",
          "ticks": 56880,
          "time": 59.25,
          "velocity": 0.6299212598425197
        },
        {
          "duration": 0.4739583333333286,
          "durationTicks": 455,
          "midi": 74,
          "name": "D5",
          "ticks": 57120,
          "time": 59.5,
          "velocity": 0.6299212598425197
        },
        {
          "duration": 0.4739583333333357,
          "durationTicks": 455,
          "midi": 66,
          "name": "F#4",
          "ticks": 57600,
          "time": 60,
          "velocity": 0.6299212598425197
        },
        {
          "duration": 0.4739583333333357,
          "durationTicks": 455,
          "midi": 78,
          "name": "F#5",
          "ticks": 57600,
          "time": 60,
          "velocity": 0.6299212598425197
        },
        {
          "duration": 0.23645833333333144,
          "durationTicks": 227,
          "midi": 78,
          "name": "F#5",
          "ticks": 58080,
          "time": 60.5,
          "velocity": 0.6299212598425197
        },
        {
          "duration": 0.23645833333333144,
          "durationTicks": 227,
          "midi": 72,
          "name": "C5",
          "ticks": 58320,
          "time": 60.75,
          "velocity": 0.6299212598425197
        },
        {
          "duration": 0.23645833333333144,
          "durationTicks": 227,
          "midi": 70,
          "name": "A#4",
          "ticks": 58560,
          "time": 61,
          "velocity": 0.6299212598425197
        },
        {
          "duration": 0.23645833333333144,
          "durationTicks": 227,
          "midi": 70,
          "name": "A#4",
          "ticks": 58800,
          "time": 61.25,
          "velocity": 0.6299212598425197
        },
        {
          "duration": 0.23645833333333144,
          "durationTicks": 227,
          "midi": 69,
          "name": "A4",
          "ticks": 59520,
          "time": 62,
          "velocity": 0.6299212598425197
        },
        {
          "duration": 0.23645833333333144,
          "durationTicks": 227,
          "midi": 72,
          "name": "C5",
          "ticks": 59760,
          "time": 62.25,
          "velocity": 0.6299212598425197
        },
        {
          "duration": 0.23645833333333144,
          "durationTicks": 227,
          "midi": 74,
          "name": "D5",
          "ticks": 60000,
          "time": 62.5,
          "velocity": 0.6299212598425197
        },
        {
          "duration": 0.23645833333333144,
          "durationTicks": 227,
          "midi": 78,
          "name": "F#5",
          "ticks": 60240,
          "time": 62.75,
          "velocity": 0.6299212598425197
        },
        {
          "duration": 0.23645833333333144,
          "durationTicks": 227,
          "midi": 74,
          "name": "D5",
          "ticks": 60480,
          "time": 63,
          "velocity": 0.6299212598425197
        },
        {
          "duration": 0.23645833333333144,
          "durationTicks": 227,
          "midi": 78,
          "name": "F#5",
          "ticks": 60720,
          "time": 63.25,
          "velocity": 0.6299212598425197
        },
        {
          "duration": 0.23645833333333144,
          "durationTicks": 227,
          "midi": 81,
          "name": "A5",
          "ticks": 60960,
          "time": 63.5,
          "velocity": 0.6299212598425197
        },
        {
          "duration": 0.23645833333333144,
          "durationTicks": 227,
          "midi": 84,
          "name": "C6",
          "ticks": 61200,
          "time": 63.75,
          "velocity": 0.6299212598425197
        },
        {
          "duration": 0.06354166666666572,
          "durationTicks": 61,
          "midi": 86,
          "name": "D6",
          "ticks": 61440,
          "time": 64,
          "velocity": 0.6299212598425197
        },
        {
          "duration": 0.06354166666666572,
          "durationTicks": 61,
          "midi": 87,
          "name": "D#6",
          "ticks": 61502,
          "time": 64.06458333333333,
          "velocity": 0.6299212598425197
        },
        {
          "duration": 0.3499999999999943,
          "durationTicks": 336,
          "midi": 86,
          "name": "D6",
          "ticks": 61564,
          "time": 64.12916666666666,
          "velocity": 0.6299212598425197
        },
        {
          "duration": 0.06354166666666572,
          "durationTicks": 61,
          "midi": 84,
          "name": "C6",
          "ticks": 61920,
          "time": 64.5,
          "velocity": 0.6299212598425197
        },
        {
          "duration": 0.06354166666666572,
          "durationTicks": 61,
          "midi": 86,
          "name": "D6",
          "ticks": 61982,
          "time": 64.56458333333333,
          "velocity": 0.6299212598425197
        },
        {
          "duration": 0.3499999999999943,
          "durationTicks": 336,
          "midi": 84,
          "name": "C6",
          "ticks": 62044,
          "time": 64.62916666666666,
          "velocity": 0.6299212598425197
        },
        {
          "duration": 0.23645833333333144,
          "durationTicks": 227,
          "midi": 86,
          "name": "D6",
          "ticks": 63360,
          "time": 66,
          "velocity": 0.6299212598425197
        },
        {
          "duration": 0.23645833333333144,
          "durationTicks": 227,
          "midi": 79,
          "name": "G5",
          "ticks": 63600,
          "time": 66.25,
          "velocity": 0.6299212598425197
        },
        {
          "duration": 0.23645833333333144,
          "durationTicks": 227,
          "midi": 82,
          "name": "A#5",
          "ticks": 63840,
          "time": 66.5,
          "velocity": 0.6299212598425197
        },
        {
          "duration": 0.23645833333333144,
          "durationTicks": 227,
          "midi": 81,
          "name": "A5",
          "ticks": 64080,
          "time": 66.75,
          "velocity": 0.6299212598425197
        },
        {
          "duration": 0.23645833333333144,
          "durationTicks": 227,
          "midi": 84,
          "name": "C6",
          "ticks": 64320,
          "time": 67,
          "velocity": 0.6299212598425197
        },
        {
          "duration": 0.23645833333333144,
          "durationTicks": 227,
          "midi": 78,
          "name": "F#5",
          "ticks": 64560,
          "time": 67.25,
          "velocity": 0.6299212598425197
        },
        {
          "duration": 0.23645833333333144,
          "durationTicks": 227,
          "midi": 81,
          "name": "A5",
          "ticks": 64800,
          "time": 67.5,
          "velocity": 0.6299212598425197
        },
        {
          "duration": 0.23645833333333144,
          "durationTicks": 227,
          "midi": 74,
          "name": "D5",
          "ticks": 65040,
          "time": 67.75,
          "velocity": 0.6299212598425197
        },
        {
          "duration": 0.7489583333333343,
          "durationTicks": 719,
          "midi": 62,
          "name": "D4",
          "ticks": 65280,
          "time": 68,
          "velocity": 0.6299212598425197
        },
        {
          "duration": 0.6822916666666714,
          "durationTicks": 655,
          "midi": 66,
          "name": "F#4",
          "ticks": 65343,
          "time": 68.065625,
          "velocity": 0.6299212598425197
        },
        {
          "duration": 0.6156249999999943,
          "durationTicks": 591,
          "midi": 69,
          "name": "A4",
          "ticks": 65407,
          "time": 68.13229166666667,
          "velocity": 0.6299212598425197
        },
        {
          "duration": 0.5489583333333314,
          "durationTicks": 527,
          "midi": 74,
          "name": "D5",
          "ticks": 65471,
          "time": 68.19895833333334,
          "velocity": 0.6299212598425197
        },
        {
          "duration": 0.4739583333333428,
          "durationTicks": 455,
          "midi": 69,
          "name": "A4",
          "ticks": 66000,
          "time": 68.75,
          "velocity": 0.6299212598425197
        },
        {
          "duration": 0.7114583333333258,
          "durationTicks": 683,
          "midi": 66,
          "name": "F#4",
          "ticks": 66480,
          "time": 69.25,
          "velocity": 0.6299212598425197
        },
        {
          "duration": 1.9989583333333343,
          "durationTicks": 1919,
          "midi": 55,
          "name": "G3",
          "ticks": 67200,
          "time": 70,
          "velocity": 0.6299212598425197
        },
        {
          "duration": 1.9322916666666714,
          "durationTicks": 1855,
          "midi": 58,
          "name": "A#3",
          "ticks": 67263,
          "time": 70.065625,
          "velocity": 0.6299212598425197
        },
        {
          "duration": 1.8666666666666742,
          "durationTicks": 1792,
          "midi": 62,
          "name": "D4",
          "ticks": 67326,
          "time": 70.13125,
          "velocity": 0.6299212598425197
        },
        {
          "duration": 1.7989583333333314,
          "durationTicks": 1727,
          "midi": 67,
          "name": "G4",
          "ticks": 67392,
          "time": 70.2,
          "velocity": 0.6299212598425197
        }
      ],
      "endOfTrackTicks": 69120
    },
    {
      "channel": 0,
      "controlChanges": {},
      "pitchBends": [],
      "instrument": {
        "family": "piano",
        "number": 0,
        "name": "acoustic grand piano"
      },
      "name": "Piano\u0000",
      "notes": [
        {
          "duration": 0.23645833333333321,
          "durationTicks": 227,
          "midi": 43,
          "name": "G2",
          "ticks": 1920,
          "time": 2,
          "velocity": 0.6299212598425197
        },
        {
          "duration": 0.23645833333333321,
          "durationTicks": 227,
          "midi": 50,
          "name": "D3",
          "ticks": 2160,
          "time": 2.25,
          "velocity": 0.6299212598425197
        },
        {
          "duration": 0.7114583333333333,
          "durationTicks": 683,
          "midi": 55,
          "name": "G3",
          "ticks": 2400,
          "time": 2.5,
          "velocity": 0.6299212598425197
        },
        {
          "duration": 0.23645833333333321,
          "durationTicks": 227,
          "midi": 38,
          "name": "D2",
          "ticks": 3840,
          "time": 4,
          "velocity": 0.6299212598425197
        },
        {
          "duration": 0.23645833333333321,
          "durationTicks": 227,
          "midi": 45,
          "name": "A2",
          "ticks": 4080,
          "time": 4.25,
          "velocity": 0.6299212598425197
        },
        {
          "duration": 0.7114583333333337,
          "durationTicks": 683,
          "midi": 50,
          "name": "D3",
          "ticks": 4320,
          "time": 4.5,
          "velocity": 0.6299212598425197
        },
        {
          "duration": 0.23645833333333321,
          "durationTicks": 227,
          "midi": 39,
          "name": "D#2",
          "ticks": 5760,
          "time": 6,
          "velocity": 0.6299212598425197
        },
        {
          "duration": 0.23645833333333321,
          "durationTicks": 227,
          "midi": 43,
          "name": "G2",
          "ticks": 6000,
          "time": 6.25,
          "velocity": 0.6299212598425197
        },
        {
          "duration": 0.7114583333333337,
          "durationTicks": 683,
          "midi": 51,
          "name": "D#3",
          "ticks": 6240,
          "time": 6.5,
          "velocity": 0.6299212598425197
        },
        {
          "duration": 0.4739583333333339,
          "durationTicks": 455,
          "midi": 38,
          "name": "D2",
          "ticks": 7680,
          "time": 8,
          "velocity": 0.6299212598425197
        },
        {
          "duration": 0.4739583333333339,
          "durationTicks": 455,
          "midi": 45,
          "name": "A2",
          "ticks": 8160,
          "time": 8.5,
          "velocity": 0.6299212598425197
        },
        {
          "duration": 0.9489583333333336,
          "durationTicks": 911,
          "midi": 50,
          "name": "D3",
          "ticks": 8640,
          "time": 9,
          "velocity": 0.6299212598425197
        },
        {
          "duration": 0.9489583333333336,
          "durationTicks": 911,
          "midi": 43,
          "name": "G2",
          "ticks": 11520,
          "time": 12,
          "velocity": 0.6299212598425197
        },
        {
          "duration": 0.9489583333333336,
          "durationTicks": 911,
          "midi": 50,
          "name": "D3",
          "ticks": 11520,
          "time": 12,
          "velocity": 0.6299212598425197
        },
        {
          "duration": 0.9489583333333336,
          "durationTicks": 911,
          "midi": 55,
          "name": "G3",
          "ticks": 11520,
          "time": 12,
          "velocity": 0.6299212598425197
        },
        {
          "duration": 0.9489583333333336,
          "durationTicks": 911,
          "midi": 55,
          "name": "G3",
          "ticks": 12480,
          "time": 13,
          "velocity": 0.6299212598425197
        },
        {
          "duration": 0.9489583333333336,
          "durationTicks": 911,
          "midi": 60,
          "name": "C4",
          "ticks": 12480,
          "time": 13,
          "velocity": 0.6299212598425197
        },
        {
          "duration": 0.9489583333333336,
          "durationTicks": 911,
          "midi": 63,
          "name": "D#4",
          "ticks": 12480,
          "time": 13,
          "velocity": 0.6299212598425197
        },
        {
          "duration": 0.9489583333333336,
          "durationTicks": 911,
          "midi": 38,
          "name": "D2",
          "ticks": 13440,
          "time": 14,
          "velocity": 0.6299212598425197
        },
        {
          "duration": 0.9489583333333336,
          "durationTicks": 911,
          "midi": 45,
          "name": "A2",
          "ticks": 13440,
          "time": 14,
          "velocity": 0.6299212598425197
        },
        {
          "duration": 0.9489583333333336,
          "durationTicks": 911,
          "midi": 50,
          "name": "D3",
          "ticks": 13440,
          "time": 14,
          "velocity": 0.6299212598425197
        },
        {
          "duration": 0.9489583333333336,
          "durationTicks": 911,
          "midi": 55,
          "name": "G3",
          "ticks": 14400,
          "time": 15,
          "velocity": 0.6299212598425197
        },
        {
          "duration": 0.9489583333333336,
          "durationTicks": 911,
          "midi": 58,
          "name": "A#3",
          "ticks": 14400,
          "time": 15,
          "velocity": 0.6299212598425197
        },
        {
          "duration": 0.9489583333333336,
          "durationTicks": 911,
          "midi": 62,
          "name": "D4",
          "ticks": 14400,
          "time": 15,
          "velocity": 0.6299212598425197
        },
        {
          "duration": 0.9489583333333336,
          "durationTicks": 911,
          "midi": 50,
          "name": "D3",
          "ticks": 15360,
          "time": 16,
          "velocity": 0.6299212598425197
        },
        {
          "duration": 0.9489583333333336,
          "durationTicks": 911,
          "midi": 55,
          "name": "G3",
          "ticks": 15360,
          "time": 16,
          "velocity": 0.6299212598425197
        },
        {
          "duration": 0.9489583333333336,
          "durationTicks": 911,
          "midi": 58,
          "name": "A#3",
          "ticks": 15360,
          "time": 16,
          "velocity": 0.6299212598425197
        },
        {
          "duration": 0.9489583333333336,
          "durationTicks": 911,
          "midi": 57,
          "name": "A3",
          "ticks": 16320,
          "time": 17,
          "velocity": 0.6299212598425197
        },
        {
          "duration": 0.9489583333333336,
          "durationTicks": 911,
          "midi": 62,
          "name": "D4",
          "ticks": 16320,
          "time": 17,
          "velocity": 0.6299212598425197
        },
        {
          "duration": 0.9489583333333336,
          "durationTicks": 911,
          "midi": 66,
          "name": "F#4",
          "ticks": 16320,
          "time": 17,
          "velocity": 0.6299212598425197
        },
        {
          "duration": 0.9489583333333336,
          "durationTicks": 911,
          "midi": 55,
          "name": "G3",
          "ticks": 17280,
          "time": 18,
          "velocity": 0.6299212598425197
        },
        {
          "duration": 0.9489583333333336,
          "durationTicks": 911,
          "midi": 60,
          "name": "C4",
          "ticks": 17280,
          "time": 18,
          "velocity": 0.6299212598425197
        },
        {
          "duration": 0.9489583333333336,
          "durationTicks": 911,
          "midi": 63,
          "name": "D#4",
          "ticks": 17280,
          "time": 18,
          "velocity": 0.6299212598425197
        },
        {
          "duration": 0.9489583333333336,
          "durationTicks": 911,
          "midi": 55,
          "name": "G3",
          "ticks": 18240,
          "time": 19,
          "velocity": 0.6299212598425197
        },
        {
          "duration": 0.9489583333333336,
          "durationTicks": 911,
          "midi": 58,
          "name": "A#3",
          "ticks": 18240,
          "time": 19,
          "velocity": 0.6299212598425197
        },
        {
          "duration": 0.9489583333333336,
          "durationTicks": 911,
          "midi": 62,
          "name": "D4",
          "ticks": 18240,
          "time": 19,
          "velocity": 0.6299212598425197
        },
        {
          "duration": 0.47395833333333215,
          "durationTicks": 455,
          "midi": 43,
          "name": "G2",
          "ticks": 19200,
          "time": 20,
          "velocity": 0.6299212598425197
        },
        {
          "duration": 0.47395833333333215,
          "durationTicks": 455,
          "midi": 50,
          "name": "D3",
          "ticks": 19680,
          "time": 20.5,
          "velocity": 0.6299212598425197
        },
        {
          "duration": 0.47395833333333215,
          "durationTicks": 455,
          "midi": 55,
          "name": "G3",
          "ticks": 19680,
          "time": 20.5,
          "velocity": 0.6299212598425197
        },
        {
          "duration": 0.47395833333333215,
          "durationTicks": 455,
          "midi": 58,
          "name": "A#3",
          "ticks": 19680,
          "time": 20.5,
          "velocity": 0.6299212598425197
        },
        {
          "duration": 0.9489583333333336,
          "durationTicks": 911,
          "midi": 43,
          "name": "G2",
          "ticks": 20160,
          "time": 21,
          "velocity": 0.6299212598425197
        },
        {
          "duration": 0.9489583333333336,
          "durationTicks": 911,
          "midi": 50,
          "name": "D3",
          "ticks": 20160,
          "time": 21,
          "velocity": 0.6299212598425197
        },
        {
          "duration": 0.9489583333333336,
          "durationTicks": 911,
          "midi": 55,
          "name": "G3",
          "ticks": 20160,
          "time": 21,
          "velocity": 0.6299212598425197
        },
        {
          "duration": 0.47395833333333215,
          "durationTicks": 455,
          "midi": 38,
          "name": "D2",
          "ticks": 21120,
          "time": 22,
          "velocity": 0.6299212598425197
        },
        {
          "duration": 0.47395833333333215,
          "durationTicks": 455,
          "midi": 50,
          "name": "D3",
          "ticks": 21600,
          "time": 22.5,
          "velocity": 0.6299212598425197
        },
        {
          "duration": 0.47395833333333215,
          "durationTicks": 455,
          "midi": 54,
          "name": "F#3",
          "ticks": 21600,
          "time": 22.5,
          "velocity": 0.6299212598425197
        },
        {
          "duration": 0.47395833333333215,
          "durationTicks": 455,
          "midi": 62,
          "name": "D4",
          "ticks": 21600,
          "time": 22.5,
          "velocity": 0.6299212598425197
        },
        {
          "duration": 0.9489583333333336,
          "durationTicks": 911,
          "midi": 38,
          "name": "D2",
          "ticks": 22080,
          "time": 23,
          "velocity": 0.6299212598425197
        },
        {
          "duration": 0.9489583333333336,
          "durationTicks": 911,
          "midi": 45,
          "name": "A2",
          "ticks": 22080,
          "time": 23,
          "velocity": 0.6299212598425197
        },
        {
          "duration": 0.9489583333333336,
          "durationTicks": 911,
          "midi": 50,
          "name": "D3",
          "ticks": 22080,
          "time": 23,
          "velocity": 0.6299212598425197
        },
        {
          "duration": 1.9989583333333343,
          "durationTicks": 1919,
          "midi": 43,
          "name": "G2",
          "ticks": 24960,
          "time": 26,
          "velocity": 0.6299212598425197
        },
        {
          "duration": 1.9322916666666643,
          "durationTicks": 1855,
          "midi": 50,
          "name": "D3",
          "ticks": 25023,
          "time": 26.065625,
          "velocity": 0.6299212598425197
        },
        {
          "duration": 1.8666666666666636,
          "durationTicks": 1792,
          "midi": 55,
          "name": "G3",
          "ticks": 25086,
          "time": 26.13125,
          "velocity": 0.6299212598425197
        },
        {
          "duration": 0.23645833333333144,
          "durationTicks": 227,
          "midi": 43,
          "name": "G2",
          "ticks": 28800,
          "time": 30,
          "velocity": 0.6299212598425197
        },
        {
          "duration": 0.23645833333333144,
          "durationTicks": 227,
          "midi": 50,
          "name": "D3",
          "ticks": 29040,
          "time": 30.25,
          "velocity": 0.6299212598425197
        },
        {
          "duration": 0.7114583333333329,
          "durationTicks": 683,
          "midi": 55,
          "name": "G3",
          "ticks": 29280,
          "time": 30.5,
          "velocity": 0.6299212598425197
        },
        {
          "duration": 0.23645833333333144,
          "durationTicks": 227,
          "midi": 38,
          "name": "D2",
          "ticks": 30720,
          "time": 32,
          "velocity": 0.6299212598425197
        },
        {
          "duration": 0.23645833333333144,
          "durationTicks": 227,
          "midi": 45,
          "name": "A2",
          "ticks": 30960,
          "time": 32.25,
          "velocity": 0.6299212598425197
        },
        {
          "duration": 0.7114583333333329,
          "durationTicks": 683,
          "midi": 50,
          "name": "D3",
          "ticks": 31200,
          "time": 32.5,
          "velocity": 0.6299212598425197
        },
        {
          "duration": 0.23645833333333144,
          "durationTicks": 227,
          "midi": 39,
          "name": "D#2",
          "ticks": 32640,
          "time": 34,
          "velocity": 0.6299212598425197
        },
        {
          "duration": 0.23645833333333144,
          "durationTicks": 227,
          "midi": 43,
          "name": "G2",
          "ticks": 32880,
          "time": 34.25,
          "velocity": 0.6299212598425197
        },
        {
          "duration": 0.7114583333333329,
          "durationTicks": 683,
          "midi": 51,
          "name": "D#3",
          "ticks": 33120,
          "time": 34.5,
          "velocity": 0.6299212598425197
        },
        {
          "duration": 0.4739583333333357,
          "durationTicks": 455,
          "midi": 38,
          "name": "D2",
          "ticks": 34560,
          "time": 36,
          "velocity": 0.6299212598425197
        },
        {
          "duration": 0.4739583333333357,
          "durationTicks": 455,
          "midi": 45,
          "name": "A2",
          "ticks": 35040,
          "time": 36.5,
          "velocity": 0.6299212598425197
        },
        {
          "duration": 0.9489583333333371,
          "durationTicks": 911,
          "midi": 50,
          "name": "D3",
          "ticks": 35520,
          "time": 37,
          "velocity": 0.6299212598425197
        },
        {
          "duration": 0.9489583333333371,
          "durationTicks": 911,
          "midi": 43,
          "name": "G2",
          "ticks": 38400,
          "time": 40,
          "velocity": 0.6299212598425197
        },
        {
          "duration": 0.9489583333333371,
          "durationTicks": 911,
          "midi": 50,
          "name": "D3",
          "ticks": 38400,
          "time": 40,
          "velocity": 0.6299212598425197
        },
        {
          "duration": 0.9489583333333371,
          "durationTicks": 911,
          "midi": 55,
          "name": "G3",
          "ticks": 38400,
          "time": 40,
          "velocity": 0.6299212598425197
        },
        {
          "duration": 0.9489583333333371,
          "durationTicks": 911,
          "midi": 55,
          "name": "G3",
          "ticks": 39360,
          "time": 41,
          "velocity": 0.6299212598425197
        },
        {
          "duration": 0.9489583333333371,
          "durationTicks": 911,
          "midi": 60,
          "name": "C4",
          "ticks": 39360,
          "time": 41,
          "velocity": 0.6299212598425197
        },
        {
          "duration": 0.9489583333333371,
          "durationTicks": 911,
          "midi": 63,
          "name": "D#4",
          "ticks": 39360,
          "time": 41,
          "velocity": 0.6299212598425197
        },
        {
          "duration": 0.9489583333333371,
          "durationTicks": 911,
          "midi": 38,
          "name": "D2",
          "ticks": 40320,
          "time": 42,
          "velocity": 0.6299212598425197
        },
        {
          "duration": 0.9489583333333371,
          "durationTicks": 911,
          "midi": 45,
          "name": "A2",
          "ticks": 40320,
          "time": 42,
          "velocity": 0.6299212598425197
        },
        {
          "duration": 0.9489583333333371,
          "durationTicks": 911,
          "midi": 50,
          "name": "D3",
          "ticks": 40320,
          "time": 42,
          "velocity": 0.6299212598425197
        },
        {
          "duration": 0.9489583333333371,
          "durationTicks": 911,
          "midi": 55,
          "name": "G3",
          "ticks": 41280,
          "time": 43,
          "velocity": 0.6299212598425197
        },
        {
          "duration": 0.9489583333333371,
          "durationTicks": 911,
          "midi": 58,
          "name": "A#3",
          "ticks": 41280,
          "time": 43,
          "velocity": 0.6299212598425197
        },
        {
          "duration": 0.9489583333333371,
          "durationTicks": 911,
          "midi": 62,
          "name": "D4",
          "ticks": 41280,
          "time": 43,
          "velocity": 0.6299212598425197
        },
        {
          "duration": 0.9489583333333371,
          "durationTicks": 911,
          "midi": 50,
          "name": "D3",
          "ticks": 42240,
          "time": 44,
          "velocity": 0.6299212598425197
        },
        {
          "duration": 0.9489583333333371,
          "durationTicks": 911,
          "midi": 55,
          "name": "G3",
          "ticks": 42240,
          "time": 44,
          "velocity": 0.6299212598425197
        },
        {
          "duration": 0.9489583333333371,
          "durationTicks": 911,
          "midi": 58,
          "name": "A#3",
          "ticks": 42240,
          "time": 44,
          "velocity": 0.6299212598425197
        },
        {
          "duration": 0.9489583333333371,
          "durationTicks": 911,
          "midi": 57,
          "name": "A3",
          "ticks": 43200,
          "time": 45,
          "velocity": 0.6299212598425197
        },
        {
          "duration": 0.9489583333333371,
          "durationTicks": 911,
          "midi": 62,
          "name": "D4",
          "ticks": 43200,
          "time": 45,
          "velocity": 0.6299212598425197
        },
        {
          "duration": 0.9489583333333371,
          "durationTicks": 911,
          "midi": 66,
          "name": "F#4",
          "ticks": 43200,
          "time": 45,
          "velocity": 0.6299212598425197
        },
        {
          "duration": 0.9489583333333371,
          "durationTicks": 911,
          "midi": 55,
          "name": "G3",
          "ticks": 44160,
          "time": 46,
          "velocity": 0.6299212598425197
        },
        {
          "duration": 0.9489583333333371,
          "durationTicks": 911,
          "midi": 60,
          "name": "C4",
          "ticks": 44160,
          "time": 46,
          "velocity": 0.6299212598425197
        },
        {
          "duration": 0.9489583333333371,
          "durationTicks": 911,
          "midi": 63,
          "name": "D#4",
          "ticks": 44160,
          "time": 46,
          "velocity": 0.6299212598425197
        },
        {
          "duration": 0.9489583333333371,
          "durationTicks": 911,
          "midi": 55,
          "name": "G3",
          "ticks": 45120,
          "time": 47,
          "velocity": 0.6299212598425197
        },
        {
          "duration": 0.9489583333333371,
          "durationTicks": 911,
          "midi": 58,
          "name": "A#3",
          "ticks": 45120,
          "time": 47,
          "velocity": 0.6299212598425197
        },
        {
          "duration": 0.9489583333333371,
          "durationTicks": 911,
          "midi": 62,
          "name": "D4",
          "ticks": 45120,
          "time": 47,
          "velocity": 0.6299212598425197
        },
        {
          "duration": 0.4739583333333286,
          "durationTicks": 455,
          "midi": 43,
          "name": "G2",
          "ticks": 46080,
          "time": 48,
          "velocity": 0.6299212598425197
        },
        {
          "duration": 0.4739583333333286,
          "durationTicks": 455,
          "midi": 50,
          "name": "D3",
          "ticks": 46560,
          "time": 48.5,
          "velocity": 0.6299212598425197
        },
        {
          "duration": 0.4739583333333286,
          "durationTicks": 455,
          "midi": 55,
          "name": "G3",
          "ticks": 46560,
          "time": 48.5,
          "velocity": 0.6299212598425197
        },
        {
          "duration": 0.4739583333333286,
          "durationTicks": 455,
          "midi": 58,
          "name": "A#3",
          "ticks": 46560,
          "time": 48.5,
          "velocity": 0.6299212598425197
        },
        {
          "duration": 0.9489583333333371,
          "durationTicks": 911,
          "midi": 43,
          "name": "G2",
          "ticks": 47040,
          "time": 49,
          "velocity": 0.6299212598425197
        },
        {
          "duration": 0.9489583333333371,
          "durationTicks": 911,
          "midi": 50,
          "name": "D3",
          "ticks": 47040,
          "time": 49,
          "velocity": 0.6299212598425197
        },
        {
          "duration": 0.9489583333333371,
          "durationTicks": 911,
          "midi": 55,
          "name": "G3",
          "ticks": 47040,
          "time": 49,
          "velocity": 0.6299212598425197
        },
        {
          "duration": 0.4739583333333286,
          "durationTicks": 455,
          "midi": 38,
          "name": "D2",
          "ticks": 48000,
          "time": 50,
          "velocity": 0.6299212598425197
        },
        {
          "duration": 0.4739583333333286,
          "durationTicks": 455,
          "midi": 50,
          "name": "D3",
          "ticks": 48480,
          "time": 50.5,
          "velocity": 0.6299212598425197
        },
        {
          "duration": 0.4739583333333286,
          "durationTicks": 455,
          "midi": 54,
          "name": "F#3",
          "ticks": 48480,
          "time": 50.5,
          "velocity": 0.6299212598425197
        },
        {
          "duration": 0.4739583333333286,
          "durationTicks": 455,
          "midi": 62,
          "name": "D4",
          "ticks": 48480,
          "time": 50.5,
          "velocity": 0.6299212598425197
        },
        {
          "duration": 0.9489583333333371,
          "durationTicks": 911,
          "midi": 38,
          "name": "D2",
          "ticks": 48960,
          "time": 51,
          "velocity": 0.6299212598425197
        },
        {
          "duration": 0.9489583333333371,
          "durationTicks": 911,
          "midi": 45,
          "name": "A2",
          "ticks": 48960,
          "time": 51,
          "velocity": 0.6299212598425197
        },
        {
          "duration": 0.9489583333333371,
          "durationTicks": 911,
          "midi": 50,
          "name": "D3",
          "ticks": 48960,
          "time": 51,
          "velocity": 0.6299212598425197
        },
        {
          "duration": 1.9989583333333343,
          "durationTicks": 1919,
          "midi": 43,
          "name": "G2",
          "ticks": 51840,
          "time": 54,
          "velocity": 0.6299212598425197
        },
        {
          "duration": 1.9322916666666714,
          "durationTicks": 1855,
          "midi": 50,
          "name": "D3",
          "ticks": 51903,
          "time": 54.065625,
          "velocity": 0.6299212598425197
        },
        {
          "duration": 1.8666666666666671,
          "durationTicks": 1792,
          "midi": 55,
          "name": "G3",
          "ticks": 51966,
          "time": 54.13125,
          "velocity": 0.6299212598425197
        },
        {
          "duration": 0.4739583333333286,
          "durationTicks": 455,
          "midi": 43,
          "name": "G2",
          "ticks": 55680,
          "time": 58,
          "velocity": 0.6299212598425197
        },
        {
          "duration": 0.4739583333333286,
          "durationTicks": 455,
          "midi": 50,
          "name": "D3",
          "ticks": 56160,
          "time": 58.5,
          "velocity": 0.6299212598425197
        },
        {
          "duration": 0.4739583333333286,
          "durationTicks": 455,
          "midi": 55,
          "name": "G3",
          "ticks": 56160,
          "time": 58.5,
          "velocity": 0.6299212598425197
        },
        {
          "duration": 0.4739583333333286,
          "durationTicks": 455,
          "midi": 48,
          "name": "C3",
          "ticks": 56640,
          "time": 59,
          "velocity": 0.6299212598425197
        },
        {
          "duration": 0.4739583333333286,
          "durationTicks": 455,
          "midi": 51,
          "name": "D#3",
          "ticks": 57120,
          "time": 59.5,
          "velocity": 0.6299212598425197
        },
        {
          "duration": 0.4739583333333286,
          "durationTicks": 455,
          "midi": 55,
          "name": "G3",
          "ticks": 57120,
          "time": 59.5,
          "velocity": 0.6299212598425197
        },
        {
          "duration": 0.4739583333333357,
          "durationTicks": 455,
          "midi": 50,
          "name": "D3",
          "ticks": 57600,
          "time": 60,
          "velocity": 0.6299212598425197
        },
        {
          "duration": 0.4739583333333357,
          "durationTicks": 455,
          "midi": 57,
          "name": "A3",
          "ticks": 58080,
          "time": 60.5,
          "velocity": 0.6299212598425197
        },
        {
          "duration": 0.4739583333333357,
          "durationTicks": 455,
          "midi": 62,
          "name": "D4",
          "ticks": 58080,
          "time": 60.5,
          "velocity": 0.6299212598425197
        },
        {
          "duration": 0.4739583333333357,
          "durationTicks": 455,
          "midi": 55,
          "name": "G3",
          "ticks": 58560,
          "time": 61,
          "velocity": 0.6299212598425197
        },
        {
          "duration": 0.4739583333333357,
          "durationTicks": 455,
          "midi": 58,
          "name": "A#3",
          "ticks": 59040,
          "time": 61.5,
          "velocity": 0.6299212598425197
        },
        {
          "duration": 0.4739583333333357,
          "durationTicks": 455,
          "midi": 62,
          "name": "D4",
          "ticks": 59040,
          "time": 61.5,
          "velocity": 0.6299212598425197
        },
        {
          "duration": 0.11770833333333286,
          "durationTicks": 113,
          "midi": 50,
          "name": "D3",
          "ticks": 59520,
          "time": 62,
          "velocity": 0.6299212598425197
        },
        {
          "duration": 0.11770833333333286,
          "durationTicks": 113,
          "midi": 54,
          "name": "F#3",
          "ticks": 59640,
          "time": 62.125,
          "velocity": 0.6299212598425197
        },
        {
          "duration": 0.11770833333333286,
          "durationTicks": 113,
          "midi": 57,
          "name": "A3",
          "ticks": 59760,
          "time": 62.25,
          "velocity": 0.6299212598425197
        },
        {
          "duration": 0.11770833333333286,
          "durationTicks": 113,
          "midi": 62,
          "name": "D4",
          "ticks": 59880,
          "time": 62.375,
          "velocity": 0.6299212598425197
        },
        {
          "duration": 0.11770833333333286,
          "durationTicks": 113,
          "midi": 50,
          "name": "D3",
          "ticks": 60000,
          "time": 62.5,
          "velocity": 0.6299212598425197
        },
        {
          "duration": 0.11770833333333286,
          "durationTicks": 113,
          "midi": 54,
          "name": "F#3",
          "ticks": 60120,
          "time": 62.625,
          "velocity": 0.6299212598425197
        },
        {
          "duration": 0.11770833333333286,
          "durationTicks": 113,
          "midi": 57,
          "name": "A3",
          "ticks": 60240,
          "time": 62.75,
          "velocity": 0.6299212598425197
        },
        {
          "duration": 0.11770833333333286,
          "durationTicks": 113,
          "midi": 62,
          "name": "D4",
          "ticks": 60360,
          "time": 62.875,
          "velocity": 0.6299212598425197
        },
        {
          "duration": 0.11770833333333286,
          "durationTicks": 113,
          "midi": 57,
          "name": "A3",
          "ticks": 60480,
          "time": 63,
          "velocity": 0.6299212598425197
        },
        {
          "duration": 0.11770833333333286,
          "durationTicks": 113,
          "midi": 62,
          "name": "D4",
          "ticks": 60600,
          "time": 63.125,
          "velocity": 0.6299212598425197
        },
        {
          "duration": 0.11770833333333286,
          "durationTicks": 113,
          "midi": 66,
          "name": "F#4",
          "ticks": 60720,
          "time": 63.25,
          "velocity": 0.6299212598425197
        },
        {
          "duration": 0.11770833333333286,
          "durationTicks": 113,
          "midi": 69,
          "name": "A4",
          "ticks": 60840,
          "time": 63.375,
          "velocity": 0.6299212598425197
        },
        {
          "duration": 0.11770833333333286,
          "durationTicks": 113,
          "midi": 57,
          "name": "A3",
          "ticks": 60960,
          "time": 63.5,
          "velocity": 0.6299212598425197
        },
        {
          "duration": 0.11770833333333286,
          "durationTicks": 113,
          "midi": 62,
          "name": "D4",
          "ticks": 61080,
          "time": 63.625,
          "velocity": 0.6299212598425197
        },
        {
          "duration": 0.11770833333333286,
          "durationTicks": 113,
          "midi": 66,
          "name": "F#4",
          "ticks": 61200,
          "time": 63.75,
          "velocity": 0.6299212598425197
        },
        {
          "duration": 0.11770833333333286,
          "durationTicks": 113,
          "midi": 69,
          "name": "A4",
          "ticks": 61320,
          "time": 63.875,
          "velocity": 0.6299212598425197
        },
        {
          "duration": 0.11770833333332575,
          "durationTicks": 113,
          "midi": 55,
          "name": "G3",
          "ticks": 63360,
          "time": 66,
          "velocity": 0.6299212598425197
        },
        {
          "duration": 0.11770833333332575,
          "durationTicks": 113,
          "midi": 58,
          "name": "A#3",
          "ticks": 63480,
          "time": 66.125,
          "velocity": 0.6299212598425197
        },
        {
          "duration": 0.11770833333332575,
          "durationTicks": 113,
          "midi": 62,
          "name": "D4",
          "ticks": 63600,
          "time": 66.25,
          "velocity": 0.6299212598425197
        },
        {
          "duration": 0.11770833333332575,
          "durationTicks": 113,
          "midi": 67,
          "name": "G4",
          "ticks": 63720,
          "time": 66.375,
          "velocity": 0.6299212598425197
        },
        {
          "duration": 0.11770833333332575,
          "durationTicks": 113,
          "midi": 55,
          "name": "G3",
          "ticks": 63840,
          "time": 66.5,
          "velocity": 0.6299212598425197
        },
        {
          "duration": 0.11770833333332575,
          "durationTicks": 113,
          "midi": 58,
          "name": "A#3",
          "ticks": 63960,
          "time": 66.625,
          "velocity": 0.6299212598425197
        },
        {
          "duration": 0.11770833333332575,
          "durationTicks": 113,
          "midi": 62,
          "name": "D4",
          "ticks": 64080,
          "time": 66.75,
          "velocity": 0.6299212598425197
        },
        {
          "duration": 0.11770833333332575,
          "durationTicks": 113,
          "midi": 67,
          "name": "G4",
          "ticks": 64200,
          "time": 66.875,
          "velocity": 0.6299212598425197
        },
        {
          "duration": 0.11770833333332575,
          "durationTicks": 113,
          "midi": 50,
          "name": "D3",
          "ticks": 64320,
          "time": 67,
          "velocity": 0.6299212598425197
        },
        {
          "duration": 0.11770833333332575,
          "durationTicks": 113,
          "midi": 54,
          "name": "F#3",
          "ticks": 64440,
          "time": 67.125,
          "velocity": 0.6299212598425197
        },
        {
          "duration": 0.11770833333332575,
          "durationTicks": 113,
          "midi": 57,
          "name": "A3",
          "ticks": 64560,
          "time": 67.25,
          "velocity": 0.6299212598425197
        },
        {
          "duration": 0.11770833333332575,
          "durationTicks": 113,
          "midi": 60,
          "name": "C4",
          "ticks": 64680,
          "time": 67.375,
          "velocity": 0.6299212598425197
        },
        {
          "duration": 0.11770833333332575,
          "durationTicks": 113,
          "midi": 50,
          "name": "D3",
          "ticks": 64800,
          "time": 67.5,
          "velocity": 0.6299212598425197
        },
        {
          "duration": 0.11770833333332575,
          "durationTicks": 113,
          "midi": 54,
          "name": "F#3",
          "ticks": 64920,
          "time": 67.625,
          "velocity": 0.6299212598425197
        },
        {
          "duration": 0.11770833333332575,
          "durationTicks": 113,
          "midi": 57,
          "name": "A3",
          "ticks": 65040,
          "time": 67.75,
          "velocity": 0.6299212598425197
        },
        {
          "duration": 0.11770833333332575,
          "durationTicks": 113,
          "midi": 60,
          "name": "C4",
          "ticks": 65160,
          "time": 67.875,
          "velocity": 0.6299212598425197
        },
        {
          "duration": 1.9989583333333343,
          "durationTicks": 1919,
          "midi": 31,
          "name": "G1",
          "ticks": 67200,
          "time": 70,
          "velocity": 0.6299212598425197
        },
        {
          "duration": 1.9322916666666714,
          "durationTicks": 1855,
          "midi": 38,
          "name": "D2",
          "ticks": 67263,
          "time": 70.065625,
          "velocity": 0.6299212598425197
        },
        {
          "duration": 1.8666666666666742,
          "durationTicks": 1792,
          "midi": 43,
          "name": "G2",
          "ticks": 67326,
          "time": 70.13125,
          "velocity": 0.6299212598425197
        }
      ],
      "endOfTrackTicks": 69120
    }
  ]
}
